<?xml version="1.0" encoding="UTF-8"?>
<!DOCTYPE svg PUBLIC "-//W3C//DTD SVG 1.1//EN" "http://www.w3.org/Graphics/SVG/1.1/DTD/svg11.dtd">
<!-- Creator: CorelDRAW -->
<svg xmlns="http://www.w3.org/2000/svg" xml:space="preserve" width="2.85333in" height="1.93999in" version="1.1" style="shape-rendering:geometricPrecision; text-rendering:geometricPrecision; image-rendering:optimizeQuality; fill-rule:evenodd; clip-rule:evenodd"
viewBox="0 0 2853.33 1939.99"
 xmlns:xlink="http://www.w3.org/1999/xlink"
 xmlns:xodm="http://www.corel.com/coreldraw/odm/2003">
 <defs>
  <style type="text/css">
   <![CDATA[
    .fil0 {fill:#E8B556}
    .fil1 {fill:white;fill-rule:nonzero}
   ]]>
  </style>
 </defs>
 <g id="Layer_x0020_1">
  <metadata id="CorelCorpID_0Corel-Layer"/>
  <g id="_2098130318704">
   <g>
    <path class="fil0" d="M1654.87 200.49l28.19 27.83 46.15 45.55 29.91 29.52c-228.26,231.3 -456.5,462.59 -684.76,693.89 0,0 -79.63,-71.42 3.15,-155.31l530.51 -537.59 -28.2 -27.83 -381.17 386.25 -29.42 -29.02 -46.64 -46.03c-9.4,-9.28 -18.8,-18.56 -28.2,-27.83 -22.87,-22.57 -64.3,-88.61 -2.62,-149.46l312.89 -317.08c61.07,-61.88 115.15,-26.18 145.95,4.23l-381.17 386.25 28.2 27.84 381.17 -386.28 24.75 24.44 51.3 50.62z"/>
    <path class="fil0" d="M1080.05 227.14l155.67 -155.67c20.36,-20.37 53.67,-20.37 74.03,0l37.02 37.02 -229.7 229.71 -37.02 -37.02c-20.36,-20.36 -20.36,-53.68 0,-74.04z"/>
    <path class="fil0" d="M1198.48 1124.07l-28.19 -27.83 -46.16 -45.53 -29.9 -29.53c228.26,-231.29 456.5,-462.59 684.76,-693.89 0,0 79.64,71.42 -3.15,155.32l-530.5 537.57 28.2 27.83 381.17 -386.25 29.42 29.03 46.64 46.03c9.39,9.27 18.8,18.55 28.2,27.83 22.87,22.56 64.31,88.59 2.62,149.45l-312.89 317.07c-61.08,61.88 -115.15,26.18 -145.96,-4.21l381.17 -386.26 -28.2 -27.83 -381.17 386.26 -24.75 -24.43 -51.31 -50.63z"/>
    <path class="fil0" d="M1773.3 1097.42l-155.67 155.67c-20.37,20.37 -53.67,20.37 -74.04,0l-37.02 -37.02 229.7 -229.7 37.02 37.01c20.36,20.36 20.36,53.68 0,74.04z"/>
   </g>
   <g>
    <path class="fil1" d="M515.39 1499.91c0,5.69 -2.01,10.38 -5.69,14.07 -4.02,4.02 -9.05,6.04 -14.74,6.04 -5.69,0 -10.39,-2.01 -14.07,-5.7 -4.02,-3.69 -6.03,-8.71 -6.03,-14.74 0,-5.69 2.01,-10.38 5.7,-14.07 4.02,-4.03 8.71,-6.04 14.41,-6.04 5.7,0 10.72,2.01 14.41,5.7 4.02,4.02 6.03,9.05 6.03,14.74zm78.74 67.68c0,29.49 -9.05,52.94 -27.14,70.7 -18.43,18.09 -43.22,26.81 -74.38,26.81 -32.17,0 -56.29,-9.72 -72.37,-29.49 -14.74,-18.09 -22.11,-43.22 -22.11,-75.72l0 -60.98 32.83 0 0 59.97c0,6.37 0.33,12.74 1,18.43 1,6.03 2.01,11.4 3.35,16.75 3.02,10.72 7.37,19.77 13.07,27.14 5.69,7.37 12.73,13.07 20.77,16.76 8.37,4.02 17.76,6.03 28.14,6.03 17.42,0 32.17,-7.04 44.23,-21.44 13.07,-15.75 19.77,-36.19 19.77,-60.98 0,-38.19 -0.33,-57.63 -0.33,-57.96l-6.03 -44.23 39.2 -9.38 0 117.6zm93.81 23.79c-15.41,0 -27.47,-4.35 -36.19,-13.07 -9.05,-9.04 -13.41,-21.11 -13.41,-36.85l0 -113.92 -5.69 -42.89 39.2 -9.05 0 158.15c0,18.43 8.04,27.47 24.12,27.47l18.09 0 0 30.15 -26.13 0zm114.25 -195.33c0,5.7 -2.01,10.38 -6.03,14.07 -4.02,4.02 -8.71,6.03 -14.74,6.03 -5.36,0 -10.05,-2.01 -14.07,-5.7 -4.02,-4.02 -6.03,-8.71 -6.03,-14.74 0,-5.7 2.01,-10.39 6.03,-14.07 4.02,-4.02 8.71,-6.04 14.07,-6.04 6.03,0 10.72,2.01 14.41,5.7 4.35,4.02 6.37,9.04 6.37,14.74zm-53.94 0c0,5.7 -1.67,10.38 -5.69,14.07 -4.02,4.02 -8.71,6.03 -14.74,6.03 -5.36,0 -10.05,-2.01 -14.07,-5.7 -4.02,-4.02 -6.03,-8.71 -6.03,-14.74 0,-5.7 2.01,-10.39 5.7,-14.07 4.02,-4.02 9.04,-6.04 14.41,-6.04 6.03,0 10.72,2.01 14.41,5.7 4.02,4.02 6.03,9.04 6.03,14.74zm62.32 195.33c-13.4,0 -24.46,-3.35 -32.83,-10.05 -9.05,6.7 -19.77,10.05 -31.83,10.05l-40.21 0 0 -30.15 30.82 0c16.76,0 24.8,-8.71 24.8,-26.47l0 -32.5 -7.04 -43.56 40.2 -9.05 0 85.1c0,17.76 7.71,26.47 23.79,26.47l17.76 0 0 30.15 -25.46 0zm293.5 0c-13.73,0 -24.79,-3.35 -33.84,-10.05 -8.37,6.7 -19.1,10.05 -31.83,10.05 -17.42,0 -32.5,-6.36 -44.9,-19.1 -9.04,12.74 -22.44,19.1 -40.54,19.1 -16.75,0 -31.83,-6.7 -44.9,-19.76 -0.67,0.33 -1,1.01 -1.67,1.67 -0.67,0.67 -1,1.34 -1.67,1.68 -0.67,0.67 -1.01,1.34 -1.68,2.01 -0.67,0.67 -1,1.34 -1.34,1.68 -9.72,8.37 -21.78,12.73 -35.85,12.73l-39.54 0 0 -30.15 30.83 0c16.08,0 24.13,-8.71 24.13,-26.47l0.67 -64.67 33.17 -7.37 0 83.43 0 4.02c8.04,7.71 17.76,11.39 28.81,11.39 16.08,0 23.79,-8.71 23.79,-26.46l0 -65 33.17 -7.37 0 86.44c8.37,8.38 18.09,12.4 28.81,12.4 16.42,0 24.46,-8.71 24.46,-26.46l0 -32.83 -6.7 -43.56 39.54 -9.05 0 85.44c0,17.42 8.04,26.13 24.46,26.13l10.06 0 0 30.15 -17.43 0zm113.92 0c-13.74,0 -24.8,-3.35 -33.17,-10.38 -8.04,7.03 -18.76,10.38 -31.83,10.38l-40.88 0 0 -30.15 32.5 0c15.75,0 23.79,-9.04 23.79,-27.47l0 -104.2 -6.37 -44.9 39.87 -9.05 0 158.15c0,18.43 8.04,27.47 24.12,27.47l14.41 0 0 30.15 -22.45 0zm29.15 -117.6c10.39,-10.05 20.11,-19.43 28.81,-28.48 9.05,-8.71 17.43,-17.43 24.8,-25.46 15.41,-16.41 28.48,-31.16 39.54,-44.23l47.91 0 -47.58 39.2 -30.49 30.15 62.32 0c26.8,0 46.91,5.37 60.98,16.09 14.41,11.06 21.44,26.13 21.44,45.56l0 84.77 -224.81 0 0 -30.15 192.31 0 0 -48.92c0,-25.8 -19.1,-38.53 -56.96,-38.53l-118.28 0zm-3.35 -46.91c3.02,-3.35 5.7,-6.37 8.71,-9.38 15.41,-16.42 28.15,-30.5 38.2,-41.89l29.82 0 -33.5 36.86 -43.22 42.55 0 -28.15z"/>
    <path class="fil1" d="M1795.5 1591.37c-15.75,0 -27.81,-4.35 -36.52,-13.07 -8.71,-9.04 -13.07,-21.44 -13.07,-36.85l0 -69.02 -31.83 0c-28.14,0 -42.22,17.76 -42.22,53.6 0,27.81 10.72,41.89 31.83,41.89l28.15 0 0 22.11c0,19.1 -6.37,35.85 -18.43,50.26 -13.07,14.41 -29.49,22.78 -49.59,25.13l-52.26 0c-32.5,0 -56.63,-9.72 -72.37,-28.81 -15.08,-17.09 -22.45,-42.21 -22.45,-75.05l0 -60.65 32.84 0 0 59.98c0,26.47 5.7,46.91 17.09,61.31 11.39,14.41 27.81,21.78 49.25,21.78l39.87 0c12.73,-2.34 23.12,-9.05 30.49,-20.1 7.37,-9.39 11.06,-18.76 11.39,-28.48 -17.76,0 -31.83,-5.69 -42.22,-16.75 -12.06,-11.39 -18.09,-27.14 -18.09,-47.24 0,-24.12 7.37,-43.89 21.78,-58.97 15.08,-15.08 33.84,-22.79 57.29,-22.79l63.33 0 -0.67 84.1c0,18.43 8.04,27.47 24.12,27.47l27.47 0 0 30.15 -35.18 0zm132.68 -195.33c0,5.7 -2.01,10.38 -6.03,14.07 -4.02,4.02 -8.71,6.03 -14.07,6.03 -5.69,0 -10.72,-2.01 -14.74,-5.7 -4.36,-4.02 -6.37,-8.71 -6.37,-14.74 0,-5.7 2.01,-10.39 6.03,-14.07 3.69,-4.02 8.71,-6.04 14.74,-6.04 5.03,0 9.72,2.01 14.07,5.7 4.02,4.02 6.03,9.04 6.03,14.74l0.33 0zm37.53 110.56c0,29.82 -6.03,51.26 -18.43,64.67 -12.06,13.4 -30.83,20.1 -56.63,20.1l-71.7 0 0 -30.15 74.38 0c22.11,0 34.51,-6.7 37.19,-20.1 -5.36,2.69 -12.73,4.02 -22.11,4.02 -37.86,0 -56.62,-17.76 -56.62,-52.94 0,-19.1 6.7,-33.5 20.77,-43.22 10.39,-7.04 22.12,-10.72 35.52,-10.72 18.76,0 33.5,5.02 43.56,15.41 9.38,9.38 14.07,21.78 14.07,37.19l0 15.74zm-32.83 -15.07c0,-21.78 -7.71,-32.83 -23.45,-32.83 -16.42,0 -24.8,12.06 -24.8,35.85 0,19.43 7.37,29.15 22.11,29.15 10.05,0 18.76,-1.67 25.8,-5.03l0 -12.39 0 -14.74 0.34 0zm104.2 -72.04l0 171.88 -33.17 0 0 -171.54 -5.36 -41.55 41.88 -3.35 -3.35 44.56zm114.59 171.88c-6.7,0 -12.06,-0.67 -16.75,-2.34 -4.02,38.86 -27.81,64.33 -71.7,76.39l-7.37 -13.07c31.16,-9.38 46.57,-31.16 46.57,-64.67l0 -84.09 -7.04 -44.9 39.87 -9.05 0 83.76c0,18.43 8.37,27.81 24.46,27.81l19.1 0 0 30.15 -27.14 0zm59.97 0l-2.35 0 -39.2 0 0 -30.15 30.83 0c16.08,0 24.12,-8.71 24.12,-26.47l0.67 -64.67 32.83 -7.37 0 67.68c35.52,-52.61 74.05,-79.07 115.59,-79.07 23.79,0 43.56,5.37 58.63,16.42 15.07,10.39 22.44,25.46 22.44,44.56l0 79.07 -243.58 0zm210.41 -73.71c0,-25.46 -18.09,-38.19 -54.94,-38.19 -20.1,0 -41.21,11.39 -62.99,34.18 -17.76,18.43 -28.81,34.17 -33.84,47.57l151.78 0 0 -43.56z"/>
   </g>
   <g>
    <path class="fil1" d="M847.04 1818.75l0 35c0,6.28 -1.26,11.67 -3.79,16.15 -2.54,4.49 -6.2,7.91 -10.98,10.3 -4.78,2.4 -10.54,3.59 -17.3,3.59 -6.81,0 -12.64,-1.15 -17.51,-3.43 -4.91,-2.27 -8.6,-5.57 -11.16,-9.88 -2.56,-4.3 -3.85,-9.48 -3.85,-15.51l0 -61.54c0,-6.39 1.26,-11.89 3.76,-16.44 2.5,-4.57 6.17,-8.04 10.98,-10.43 4.81,-2.39 10.57,-3.58 17.23,-3.58 6.63,0 12.3,1.17 16.98,3.48 4.72,2.31 8.29,5.67 10.79,10.13 2.49,4.45 3.76,9.75 3.76,15.94l0 7.48 -20.69 0 0 -7.48c0,-2.5 -0.43,-4.63 -1.26,-6.38 -0.83,-1.79 -2.06,-3.11 -3.7,-4.03 -1.63,-0.91 -3.58,-1.39 -5.89,-1.39 -2.47,0 -4.59,0.5 -6.44,1.51 -1.85,1 -3.24,2.47 -4.16,4.36 -0.93,1.88 -1.39,4.17 -1.39,6.83l0 61.54c0,2.28 0.49,4.25 1.48,5.9 0.99,1.66 2.44,2.91 4.35,3.78 1.89,0.88 4.14,1.3 6.72,1.3 2.59,0 4.81,-0.45 6.69,-1.36 1.85,-0.94 3.3,-2.3 4.29,-4.11 0.98,-1.84 1.48,-4 1.48,-6.57l0 -18.17 -12.91 0 0 -17 32.52 0zm46.26 65.04c-6.94,0 -12.89,-1.15 -17.85,-3.43 -4.96,-2.27 -8.76,-5.55 -11.35,-9.87 -2.59,-4.27 -3.88,-9.44 -3.88,-15.52l0 -63.26c0,-6.06 1.3,-11.25 3.88,-15.59 2.59,-4.31 6.39,-7.58 11.35,-9.8 4.96,-2.23 10.91,-3.34 17.85,-3.34 6.96,0 12.95,1.11 17.88,3.34 4.94,2.22 8.7,5.49 11.31,9.8 2.62,4.33 3.94,9.53 3.94,15.59l0 63.26c0,6.08 -1.33,11.25 -3.94,15.52 -2.62,4.31 -6.38,7.6 -11.31,9.87 -4.93,2.28 -10.91,3.43 -17.88,3.43zm0 -17.67c2.74,0 5.15,-0.47 7.12,-1.41 1.98,-0.94 3.49,-2.33 4.53,-4.15 1.02,-1.83 1.52,-4.02 1.52,-6.64l0 -61.19c0,-2.57 -0.5,-4.76 -1.52,-6.56 -1.04,-1.84 -2.56,-3.2 -4.53,-4.17 -1.97,-0.94 -4.37,-1.41 -7.12,-1.41 -2.78,0 -5.15,0.47 -7.09,1.41 -1.98,0.97 -3.46,2.33 -4.48,4.17 -1.04,1.81 -1.54,4 -1.54,6.56l0 61.19c0,2.62 0.49,4.81 1.54,6.64 1.02,1.81 2.5,3.2 4.48,4.15 1.93,0.94 4.31,1.41 7.09,1.41zm48.14 -101.91l19.79 0 0 118.35 -19.79 0 0 -118.35zm9.22 101.36l46.33 0 0 17 -46.33 0 0 -17zm58.62 -101.36l19.79 0 0 118.35 -19.79 0 0 -118.35zm9.4 101.19l47.97 0 0 17.17 -47.97 0 0 -17.17zm0 -50.22l43.44 0 0 17.17 -43.44 0 0 -17.17zm0 -50.96l47.97 0 0 17.17 -47.97 0 0 -17.17zm91.33 119.58c-6.87,0 -12.7,-1.12 -17.57,-3.33 -4.84,-2.23 -8.54,-5.48 -11.07,-9.73 -2.53,-4.28 -3.8,-9.44 -3.8,-15.5l0 -6.12 19.7 -0.08 0 5.87c0,3.63 1.11,6.44 3.33,8.46 2.25,2 5.37,3.01 9.41,3.01 3.91,0 6.93,-1.01 9.09,-2.98 2.13,-1.97 3.21,-4.78 3.21,-8.42l0 -10.34c0,-2.55 -0.74,-4.71 -2.22,-6.52 -1.48,-1.77 -3.33,-3.28 -5.55,-4.5 -2.25,-1.22 -5.3,-2.66 -9.21,-4.36 -0.19,-0.05 -0.37,-0.11 -0.56,-0.2 -0.19,-0.09 -0.37,-0.17 -0.52,-0.22l-1.17 -0.47c-5.24,-2.28 -9.59,-4.55 -13.07,-6.83 -3.45,-2.28 -6.38,-5.39 -8.76,-9.28 -2.37,-3.93 -3.57,-8.81 -3.57,-14.67l0 -6.5c0,-5.91 1.26,-10.97 3.76,-15.16 2.5,-4.22 6.17,-7.43 10.97,-9.61 4.81,-2.2 10.64,-3.31 17.42,-3.31 6.69,0 12.39,1.11 17.08,3.31 4.69,2.19 8.29,5.42 10.76,9.7 2.47,4.25 3.7,9.38 3.7,15.41l0 6.42 -19.8 0.17 0 -6.2c0,-3.67 -1.02,-6.5 -3.02,-8.5 -2.01,-1.97 -4.94,-2.97 -8.73,-2.97 -3.98,0 -7.03,0.95 -9.15,2.78 -2.13,1.82 -3.21,4.44 -3.21,7.8l0 7.67c0,2.58 0.71,4.81 2.13,6.68 1.43,1.83 3.21,3.32 5.37,4.5 2.16,1.16 5.15,2.58 8.94,4.19 0.56,0.22 1.09,0.44 1.58,0.69 0.52,0.26 1.07,0.47 1.69,0.7 0.16,0.11 0.38,0.19 0.59,0.28 0.19,0.08 0.43,0.2 0.67,0.3 5.12,2.24 9.22,4.33 12.36,6.31 3.15,1.98 5.8,4.78 7.98,8.45 2.22,3.66 3.3,8.41 3.3,14.22l0 10.34c0,6.06 -1.24,11.22 -3.74,15.5 -2.5,4.25 -6.17,7.5 -10.94,9.73 -4.78,2.21 -10.57,3.33 -17.39,3.33zm61.89 -109.8l19.76 0 0 108.57 -19.76 0 0 -108.57zm-22.5 -9.78l64.76 0 0 17.03 -64.76 0 0 -17.03zm92.5 0l15.72 0 30.89 118.35 -20.31 0 -18.44 -85.87 -18.34 85.87 -20.31 0 30.8 -118.35zm-10.48 79.54l37.4 0 0 16.68 -37.4 0 0 -16.68zm67.56 -79.54l16.28 0 33.42 84.82 -2.63 2.69 0 -87.52 18.41 0 0 118.27 -16.52 0 -33.15 -81.15 2.63 -2.69 0 83.84 -18.44 0 0 -118.27z"/>
    <path class="fil1" d="M1430.37 1765.41l22.16 0 0 117.18 -22.16 0 0 -117.18zm9.83 97.68l47.91 0 0 19.5 -47.91 0 0 -19.5zm0 -48.45l43.46 0 0 19.43 -43.46 0 0 -19.43zm0 -49.23l47.91 0 0 19.5 -47.91 0 0 -19.5zm90.61 70.73l-4.09 -8.85 -27.19 -61.88 24.14 0 14.41 42.71 4.82 10.72 29.24 63.74 -24.14 0 -17.19 -46.45zm-1.07 -21.25l16.27 -49.48 24.15 0 -29.77 65.84 -17.8 51.34 -24.13 0 31.28 -67.7zm83.01 68.91c-6.56,0 -12.15,-1.2 -16.81,-3.48 -4.64,-2.35 -8.21,-5.75 -10.69,-10.2 -2.48,-4.47 -3.69,-9.85 -3.69,-16.13l0 -59.95c0,-6.28 1.22,-11.68 3.69,-16.13 2.47,-4.46 6.04,-7.84 10.69,-10.18 4.66,-2.34 10.25,-3.52 16.81,-3.52 6.56,0 12.18,1.17 16.85,3.52 4.7,2.33 8.24,5.74 10.72,10.22 2.44,4.49 3.66,9.87 3.66,16.15l0 9.44 -22.46 0 0 -9.44c0,-1.98 -0.31,-3.71 -0.98,-5.13 -0.65,-1.46 -1.65,-2.59 -2.99,-3.35 -1.35,-0.78 -2.94,-1.16 -4.8,-1.16 -1.76,0 -3.32,0.35 -4.63,1.11 -1.31,0.76 -2.32,1.87 -2.99,3.31 -0.7,1.46 -1.04,3.16 -1.04,5.15l0 59.95c0,1.99 0.33,3.69 1.04,5.11 0.67,1.44 1.67,2.5 2.99,3.27 1.31,0.76 2.87,1.15 4.63,1.15 1.93,0 3.51,-0.39 4.83,-1.15 1.31,-0.77 2.31,-1.83 2.96,-3.27 0.67,-1.42 0.98,-3.15 0.98,-5.19l0 -9.44 22.46 0 0 9.44c0,6.3 -1.22,11.65 -3.66,16.14 -2.48,4.52 -6.02,7.92 -10.72,10.27 -4.67,2.29 -10.29,3.48 -16.85,3.48zm91.08 -118.38l22.15 0 0 117.18 -22.15 0 0 -117.18zm-39.72 0l22.16 0 0 117.18 -22.16 0 0 -117.18zm10.53 50.06l43.56 0 0 18.74 -43.56 0 0 -18.74zm98.03 -50.06l15.57 0 31.05 117.18 -22.02 0 -16.81 -76.8 -16.82 76.8 -21.98 0 31.01 -117.18zm-9.92 80.25l35.41 0 0 18.72 -35.41 0 0 -18.72zm73.98 -80.25l17.43 0 30.57 78.17 -2.41 3.13 0 -81.3 20.2 0 0 117.09 -17.61 0 -30.22 -73.66 2.33 -3.22 0 76.88 -20.3 0 0 -117.09zm154.46 53.91l0 35.06c0,6.11 -1.28,11.39 -3.82,15.8 -2.52,4.39 -6.2,7.78 -11.04,10.13 -4.83,2.29 -10.59,3.48 -17.34,3.48 -6.86,0 -12.73,-1.12 -17.61,-3.39 -4.88,-2.25 -8.63,-5.53 -11.23,-9.85 -2.59,-4.29 -3.89,-9.41 -3.89,-15.38l0 -60.75c0,-6.31 1.26,-11.69 3.79,-16.24 2.53,-4.53 6.23,-8.01 11.04,-10.37 4.83,-2.41 10.63,-3.61 17.35,-3.61 6.62,0 12.29,1.15 17.06,3.47 4.74,2.3 8.33,5.66 10.83,10.06 2.54,4.42 3.79,9.69 3.79,15.81l0 9.02 -22.83 0 0 -9.02c0,-1.88 -0.34,-3.52 -1.07,-4.89 -0.7,-1.35 -1.73,-2.39 -3.08,-3.15 -1.34,-0.71 -2.9,-1.06 -4.7,-1.06 -1.96,0 -3.67,0.38 -5.13,1.22 -1.46,0.8 -2.56,1.96 -3.36,3.45 -0.76,1.5 -1.16,3.27 -1.16,5.31l0 60.75c0,1.65 0.39,3.15 1.22,4.4 0.8,1.24 1.98,2.24 3.5,2.91 1.56,0.65 3.39,1.01 5.46,1.01 2.14,0 4,-0.36 5.59,-1.06 1.59,-0.7 2.78,-1.72 3.63,-3.05 0.81,-1.36 1.25,-2.96 1.25,-4.87l0 -16.02 -10.93 0 0 -19.17 32.65 0zm21.94 -53.91l22.16 0 0 117.18 -22.16 0 0 -117.18zm9.83 97.68l47.91 0 0 19.5 -47.91 0 0 -19.5zm0 -48.45l43.46 0 0 19.43 -43.46 0 0 -19.43zm0 -49.23l47.91 0 0 19.5 -47.91 0 0 -19.5z"/>
   </g>
  </g>
 </g>
</svg>
